<svg xmlns="http://www.w3.org/2000/svg" x="0px" y="0px" width="64" height="64" viewBox="0,0,256,256">
<g fill="#ffffff" fill-rule="nonzero" stroke="none" stroke-width="1" stroke-linecap="butt" stroke-linejoin="miter" stroke-miterlimit="10" stroke-dasharray="" stroke-dashoffset="0" font-family="none" font-weight="none" font-size="none" text-anchor="none" style="mix-blend-mode: normal"><g transform="scale(8,8)"><path d="M16,4c-6.58984,0 -12,5.13672 -12,11.5c0,3.39063 1.57031,6.40234 4,8.5v4.625l4.4375,-2.21875c1.12891,0.33984 2.30859,0.59375 3.5625,0.59375c6.58984,0 12,-5.13672 12,-11.5c0,-6.36328 -5.41016,-11.5 -12,-11.5zM16,6c5.55859,0 10,4.26563 10,9.5c0,5.23438 -4.44141,9.5 -10,9.5c-1.19531,0 -2.33594,-0.22656 -3.40625,-0.59375l-0.40625,-0.125l-2.1875,1.09375v-2.25l-0.375,-0.3125c-2.21875,-1.75 -3.625,-4.37109 -3.625,-7.3125c0,-5.23437 4.44141,-9.5 10,-9.5zM14.875,12.34375l-6.03125,6.375l5.40625,-3l2.875,3.09375l5.96875,-6.46875l-5.28125,2.96875z"></path></g></g>
</svg>