<svg xmlns="http://www.w3.org/2000/svg" x="0px" y="0px" width="64" height="64" viewBox="0,0,256,256">
<g fill="#ffffff" fill-rule="nonzero" stroke="none" stroke-width="1" stroke-linecap="butt" stroke-linejoin="miter" stroke-miterlimit="10" stroke-dasharray="" stroke-dashoffset="0" font-family="none" font-weight="none" font-size="none" text-anchor="none" style="mix-blend-mode: normal"><g transform="scale(8,8)"><path d="M15.69922,4c-1.9,0 -6.59961,0.19961 -9.09961,2.59961c-1.8,1.7 -2.49961,4.30039 -2.59961,7.40039c-0.2,4.9 0.89922,7.99961 2.69922,9.59961c0.4,0.3 1.40078,1.10117 3.30078,1.70117v2.5c0,0 -0.00039,0.99922 0.59961,1.19922c0.1,0 0.20078,0.09961 0.30078,0.09961c0.6,0 1.09883,-0.70039 1.79883,-1.40039c0.6,-0.7 1.10039,-1.19922 1.40039,-1.69922h1.40039h0.80078c1.9,0 6.59961,-0.19961 9.09961,-2.59961c1.8,-1.8 2.5,-4.40117 2.5,-7.70117c0.1,-0.5 0.09961,-1.09922 0.09961,-1.69922c-0.1,-3.7 -1.19922,-6.19961 -2.69922,-7.59961c-0.6,-0.5 -3.20078,-2.40039 -8.80078,-2.40039zM15.5,5.90039h0.69922h0.10156h0.09961c5.3,0 7.3,1.70039 7.5,1.90039c1.2,1 1.9,3.19961 2,6.09961v0.40039c0.1,0.6 0.09961,1.09844 0.09961,1.39844c-0.1,3 -0.70039,5.00078 -1.90039,6.30078c-2.1,1.9 -6.49922,2 -7.69922,2h-0.70117h-0.09961h-0.09961h-1l-1.59961,1.80078l-1,1.09961l-0.20117,0.29883c-0.2,0.2 -0.49922,0.60117 -0.69922,0.70117v-0.20117v-4.29883c-2,-0.5 -2.8,-1.20039 -3,-1.40039c-1.4,-1.2 -2.2,-4.1 -2,-8v-1c0.2,-2.4 0.80078,-3.99961 1.80078,-5.09961c2.1,-1.9 6.49922,-2 7.69922,-2zM15.40039,8.09961c-0.5,0 -0.5,0.70117 0,0.70117c3.7,0 6.90039,2.49922 6.90039,7.19922c0,0.5 0.69922,0.5 0.69922,0c0,-5.1 -3.39961,-8.00039 -7.59961,-7.90039zM11.4375,9.02539c-0.2125,-0.025 -0.43672,0.02383 -0.63672,0.17383c-1,0.5 -2.00117,1.50156 -1.70117,2.60156c0,0 0.20078,0.89883 1.30078,2.79883c0.6,0.9 1.09961,1.70078 1.59961,2.30078c0.5,0.7 1.29961,1.49961 2.09961,2.09961c1.6,1.3 4.10117,2.60039 5.20117,2.90039c1,0.3 2.09961,-0.70117 2.59961,-1.70117c0.2,-0.4 0.09922,-0.89922 -0.30078,-1.19922c-0.6,-0.6 -1.59883,-1.29922 -2.29883,-1.69922c-0.5,-0.3 -1.10078,-0.10078 -1.30078,0.19922l-0.5,0.59961c-0.2,0.3 -0.69922,0.30078 -0.69922,0.30078c-3.3,-0.9 -4.20117,-4.30078 -4.20117,-4.30078c0,0 0.00078,-0.39922 0.30078,-0.69922l0.59961,-0.5c0.3,-0.2 0.49922,-0.80078 0.19922,-1.30078c-0.2,-0.3 -0.49883,-0.89922 -0.79883,-1.19922c-0.3,-0.4 -0.90039,-1.09961 -0.90039,-1.09961c-0.15,-0.15 -0.35,-0.25039 -0.5625,-0.27539zM16.09961,10.09961c-0.5,-0.1 -0.59961,0.70117 -0.09961,0.70117c2.8,0.2 4.40078,2.1 4.30078,4.5c-0.1,0.5 0.69922,0.5 0.69922,0c0.1,-2.8 -1.70039,-5.10117 -4.90039,-5.20117zM16.40039,12c-0.5,-0.1 -0.5,0.69922 0,0.69922c1.2,0 1.79883,0.70039 1.79883,1.90039c0.1,0.5 0.80078,0.5 0.80078,0c-0.1,-1.6 -0.99961,-2.59961 -2.59961,-2.59961z"></path></g></g>
</svg>